<?xml version="1.0" encoding="iso-8859-1"?>
<!-- Generator: Adobe Illustrator 19.0.0, SVG Export Plug-In . SVG Version: 6.00 Build 0)  -->
<svg version="1.1" id="Layer_1" xmlns="http://www.w3.org/2000/svg" xmlns:xlink="http://www.w3.org/1999/xlink" x="0px" y="0px"
	 viewBox="0 0 512 512" style="enable-background:new 0 0 512 512;" xml:space="preserve">
<path style="fill:#5C5F66;" d="M256,136.599c-22.5,0-45,14.702-45,44.401v150c0,8.399,6.599,15,15,15s15-6.601,15-15
	c0-8.401,6.599-15,15-15s15,6.599,15,15c0,8.399,6.599,15,15,15s15-6.601,15-15V181C301,151.3,278.5,136.599,256,136.599z"/>
<path style="fill:#53565C;" d="M301,181v150c0,8.399-6.599,15-15,15s-15-6.601-15-15c0-8.401-6.599-15-15-15V136.599
	C278.5,136.599,301,151.3,301,181z"/>
<path style="fill:#70737C;" d="M256,286c-24.901,0-45,20.099-45,45c0,24.899,20.099,45,45,45s45-20.101,45-45
	C301,306.099,280.901,286,256,286z M256,346c-8.401,0-15-6.601-15-15c0-8.401,6.599-15,15-15s15,6.599,15,15
	C271,339.399,264.401,346,256,346z"/>
<path style="fill:#A1A7B3;" d="M286,331c0,16.5-13.5,30-30,30s-30-13.5-30-30s13.5-30,30-30S286,314.5,286,331z"/>
<path style="fill:#666A71;" d="M301,331c0,24.899-20.099,45-45,45v-30c8.401,0,15-6.601,15-15c0-8.401-6.599-15-15-15v-30
	C280.901,286,301,306.099,301,331z"/>
<path style="fill:#979CA7;" d="M286,331c0,16.5-13.5,30-30,30v-60C272.5,301,286,314.5,286,331z"/>
<path style="fill:#53565C;" d="M301,136c-1.597,0-3.193-0.249-4.761-0.776C290.116,133.173,286,127.445,286,121V76
	c0-33.091,27.909-60,61-60c27.788,0,52.368,19.688,58.433,46.816l7.793,34.805c1.304,5.83-0.967,11.865-5.786,15.396
	c-4.834,3.501-11.279,3.838-16.406,0.835c-25.254-14.692-60.355-7.28-78.051,16.187C310.082,133.861,305.614,136,301,136z"/>
<path style="fill:#5C5F66;" d="M210,136c-4.614,0-9.082-2.139-11.982-5.962c-17.681-23.467-51.753-30.879-77.051-16.187
	c-5.142,3.032-11.587,2.695-16.406-0.835s-7.09-9.565-5.786-15.396l7.793-34.805C112.632,35.688,137.212,16,165,16
	c33.091,0,60,26.909,60,60v45c0,6.445-4.116,12.173-10.239,14.224C213.193,135.751,211.597,136,210,136z"/>
<path style="fill:#7F838C;" d="M225,391c-8.291,0-15-6.709-15-15c0-49.629-40.371-90-90-90c-36.328,0-68.936,21.709-83.071,55.313
	c-1.318,3.135-2.344,6.299-3.384,9.712c-2.417,7.866-10.693,12.363-18.647,9.946c-7.896-2.373-12.407-10.664-10.093-18.574
	L63.604,140.79c6.548-22.896,22.163-42.305,42.832-53.159C119.238,80.131,134.517,76,150,76c28.506,0,54.741,13.11,71.982,35.962
	c0.454,0.615,0.864,1.26,1.23,1.934C234.053,128.632,240,147.045,240,166v210C240,384.291,233.291,391,225,391z"/>
<path style="fill:#70737C;" d="M150,166l-26.4,90.3c-1.199-0.3-2.401-0.3-3.6-0.3c-9.901,0-19.501,1.199-28.801,3.6l30-102.001
	C126.963,138.153,155.499,147.442,150,166z"/>
<path style="fill:#CCF1FF;" d="M120,271c-42.378,0-80.42,25.313-96.899,64.497c-1.509,3.604-2.71,7.236-3.955,11.323
	C16.392,356.254,15,366.068,15,376c0,57.891,47.109,105,105,105s105-47.109,105-105S177.891,271,120,271z"/>
<path style="fill:#B3EAFF;" d="M492.723,346.366c-1.113-3.647-2.314-7.28-3.838-10.898C472.405,296.298,434.378,271,392,271
	c-57.891,0-106,47.109-106,105s48.109,105,106,105s105-47.109,105-105C497,366.083,495.594,356.195,492.723,346.366z"/>
<path style="fill:#757982;" d="M286,391c-8.291,0-15-6.709-15-15V166c0-18.999,5.977-37.456,16.874-52.207
	c0.337-0.645,0.718-1.26,1.143-1.831C306.259,89.11,333.494,76,362,76c15.483,0,30.762,4.131,44.15,11.953
	c20.083,10.532,35.698,29.941,42.275,52.91l58.77,201.533c2.314,7.91-2.197,16.201-10.093,18.574
	c-7.925,2.344-16.216-2.095-18.647-9.946c-1.04-3.413-2.065-6.577-3.398-9.741C460.936,307.709,428.328,286,392,286
	c-49.629,0-91,40.371-91,90C301,384.291,294.291,391,286,391z"/>
<path style="fill:#666A71;" d="M420.801,259.6c-9.3-2.401-18.9-3.6-28.801-3.6c-1.199,0-2.401,0-3.6,0.3L362,166
	c-5.499-18.558,23.037-27.847,28.801-8.401L420.801,259.6z"/>
<path style="fill:#70737C;" d="M120,496C53.833,496,0,442.167,0,376c0-11.353,1.611-22.661,4.805-33.589
	c1.421-4.614,2.769-8.657,4.453-12.7C28.096,284.916,71.558,256,120,256c66.167,0,120,53.833,120,120S186.167,496,120,496z M120,286
	c-36.328,0-68.936,21.709-83.071,55.313c-1.318,3.135-2.344,6.299-3.384,9.712C31.216,359.008,30,367.489,30,376
	c0,49.629,40.371,90,90,90s90-40.371,90-90S169.629,286,120,286z"/>
<path style="fill:#666A71;" d="M392,496c-66.167,0-121-53.833-121-120s54.833-120,121-120c48.442,0,91.904,28.916,110.728,73.682
	c1.699,4.072,3.047,8.115,4.409,12.495C510.389,353.339,512,364.647,512,376C512,442.167,458.167,496,392,496z M392,286
	c-49.629,0-91,40.371-91,90s41.371,90,91,90s90-40.371,90-90c0-8.511-1.216-16.992-3.604-25.21c-0.981-3.179-2.007-6.343-3.34-9.507
	C460.936,307.709,428.328,286,392,286z"/>
<g>
</g>
<g>
</g>
<g>
</g>
<g>
</g>
<g>
</g>
<g>
</g>
<g>
</g>
<g>
</g>
<g>
</g>
<g>
</g>
<g>
</g>
<g>
</g>
<g>
</g>
<g>
</g>
<g>
</g>
</svg>
