<svg id="Capa_1" enable-background="new 0 0 512 512" height="512" viewBox="0 0 512 512" width="512" xmlns="http://www.w3.org/2000/svg" xmlns:xlink="http://www.w3.org/1999/xlink"><linearGradient id="SVGID_1_" gradientUnits="userSpaceOnUse" x1="256" x2="256" y1="512" y2="0"><stop offset="0" stop-color="#addcff"/><stop offset=".5028" stop-color="#eaf6ff"/><stop offset="1" stop-color="#eaf6ff"/></linearGradient><linearGradient id="SVGID_2_" gradientUnits="userSpaceOnUse" x1="256.024" x2="256.024" y1="105" y2="406.87"><stop offset="0" stop-color="#5558ff"/><stop offset="1" stop-color="#00c0ff"/></linearGradient><g><circle cx="256" cy="256" fill="url(#SVGID_1_)" r="256"/><g><g><path d="m371.513 131.473c0-4.975-3.908-8.884-8.884-8.884h-26.651v17.945c0 4.974-3.908 8.884-8.884 8.884s-8.884-3.909-8.884-8.884v-17.944h-71.07v17.945c0 4.974-3.908 8.884-8.884 8.884s-8.884-3.909-8.884-8.884v-17.945h-71.07v17.945c0 4.974-3.908 8.884-8.884 8.884-4.975 0-8.884-3.909-8.884-8.884v-17.945h-26.651c-4.975 0-8.884 3.908-8.884 8.884v44.419h266.513v-44.42zm-213.211-17.589c0-4.798-3.908-8.884-8.884-8.884-4.975 0-8.884 4.086-8.884 8.884v8.706h17.767v-8.706zm88.838 0c0-4.798-3.908-8.884-8.884-8.884s-8.884 4.086-8.884 8.884v8.706h17.768zm88.838 0c0-4.798-3.908-8.884-8.884-8.884s-8.884 4.086-8.884 8.884v8.706h17.767v-8.706zm-106.605 133.33h17.768v-17.768h-17.768zm0 71.07h17.768v-17.768h-17.768zm-71.071-71.07h17.768v-17.768h-17.768zm195.443 35.283c6.171 0 12.055 1.039 17.768 2.523v-91.36h-266.513v168.791c0 4.906 3.978 8.884 8.884 8.884h171.315c-1.484-5.713-2.524-11.597-2.524-17.767 0-39.188 31.883-71.071 71.07-71.071zm-71.07-61.934c0-4.906 3.978-8.884 8.884-8.884h35.535c4.906 0 8.884 3.978 8.884 8.884v35.535c0 4.906-3.978 8.884-8.884 8.884h-35.535c-4.906 0-8.884-3.978-8.884-8.884zm-88.837 106.605c0 4.906-3.978 8.884-8.884 8.884h-35.535c-4.906 0-8.884-3.978-8.884-8.884v-35.535c0-4.906 3.978-8.884 8.884-8.884h35.535c4.906 0 8.884 3.978 8.884 8.884zm0-71.07c0 4.906-3.978 8.884-8.884 8.884h-35.535c-4.906 0-8.884-3.978-8.884-8.884v-35.535c0-4.906 3.978-8.884 8.884-8.884h35.535c4.906 0 8.884 3.978 8.884 8.884zm71.07 71.07c0 4.906-3.978 8.884-8.884 8.884h-35.535c-4.906 0-8.884-3.978-8.884-8.884v-35.535c0-4.906 3.978-8.884 8.884-8.884h35.535c4.906 0 8.884 3.978 8.884 8.884zm0-71.07c0 4.906-3.978 8.884-8.884 8.884h-35.535c-4.906 0-8.884-3.978-8.884-8.884v-35.535c0-4.906 3.978-8.884 8.884-8.884h35.535c4.906 0 8.884 3.978 8.884 8.884zm-106.606 62.186h17.768v-17.768h-17.768zm159.908-88.838h-17.768v17.768h17.768zm35.535 70.819c-29.438 0-53.302 23.864-53.302 53.303 0 29.438 23.864 53.302 53.302 53.302s53.303-23.864 53.303-53.302c0-29.439-23.865-53.303-53.303-53.303zm17.768 62.438h-17.768c-4.91 0-8.884-3.973-8.884-8.884v-17.767c0-4.91 3.973-8.884 8.884-8.884 4.91 0 8.884 3.973 8.884 8.884v8.884h8.884c4.91 0 8.884 3.973 8.884 8.884-.001 4.909-3.974 8.883-8.884 8.883z" fill="url(#SVGID_2_)"/></g></g></g></svg>