<?xml version="1.0"?><svg xmlns="http://www.w3.org/2000/svg" xmlns:xlink="http://www.w3.org/1999/xlink" style="overflow: visible; width: 100%; height: 100%; position: absolute; left: 0px; top: 0px; transition: all 350ms ease-in-out 0s; backface-visibility: hidden; opacity: 1; transform: rotate3d(1, 1, 0, 0deg);" viewBox="-28.00 -28.00 377.04 118.13" width="798.4031936127744px" height="4125.869813538341px"><g transform="translate(0 0)"><g transform="translate(0 0)"><g transform="translate(0 0)"><g transform="scale(0.8384 0.8384) translate(-0.6000000238418579 73.0999984741211)"><g transform="translate(0.000,0)" fill="#4a682d" stroke="#4a682d" stroke-width="0"><path d="M15.70,-54.50L14.42,-54.54L12.15,-54.88L10.27,-55.55L8.76,-56.57L8.15,-57.20L7.62,-57.90L6.78,-59.41L6.22,-61.08L5.94,-62.92L5.90,-63.90L5.94,-64.88L6.24,-66.70L6.86,-68.35L7.78,-69.83L8.35,-70.50L9.00,-71.11L10.55,-72.08L12.41,-72.73L14.59,-73.06L15.80,-73.10L17.01,-73.06L19.21,-72.77L21.11,-72.18L22.71,-71.30L23.40,-70.75L24.01,-70.13L24.98,-68.71L25.63,-67.03L25.96,-65.11L26.00,-64.05L25.96,-62.99L25.65,-61.03L25.02,-59.30L24.09,-57.78L23.50,-57.10L22.83,-56.49L21.23,-55.52L19.28,-54.87L16.98,-54.54Z   " class=""></path><path d="M0.60,-45.80L0.60,-47.60L25.10,-47.60L25.10,-1.80L30.70,-1.80L30.70,0.00L1.00,0.00L1.00,-1.80L6.50,-1.80L6.50,-45.80Z   " class=""></path></g><g transform="translate(30.537,0)" fill="#4a682d" stroke="#4a682d" stroke-width="0"><path d="M1.20,-45.80L1.20,-47.60L25.30,-47.60L25.30,-38.40L25.73,-39.52L26.74,-41.60L27.96,-43.45L29.40,-45.07L30.20,-45.80L30.89,-46.33L32.49,-47.23L34.35,-47.90L36.49,-48.35L38.89,-48.57L40.20,-48.60L41.58,-48.57L44.14,-48.29L46.44,-47.74L48.49,-46.91L50.29,-45.81L51.83,-44.43L53.11,-42.77L54.13,-40.84L54.90,-38.63L55.41,-36.14L55.67,-33.38L55.70,-31.90L55.70,-1.80L61.30,-1.80L61.30,0.00L33.00,0.00L33.00,-1.80L37.10,-1.80L37.10,-34.30L37.09,-35.73L36.99,-38.20L36.79,-40.14L36.49,-41.55L36.30,-42.05L35.82,-42.82L34.37,-43.69L33.40,-43.80L32.61,-43.73L31.11,-43.21L29.69,-42.16L28.37,-40.58L27.75,-39.60L27.28,-38.74L26.50,-36.92L25.91,-34.95L25.52,-32.84L25.32,-30.58L25.30,-29.40L25.30,-1.80L29.60,-1.80L29.60,0.00L1.20,0.00L1.20,-1.80L6.70,-1.80L6.70,-45.80Z   " class=""></path></g><g transform="translate(85.774,0)" fill="#4a682d" stroke="#4a682d" stroke-width="0"><path d="M29.00,-46.80L27.94,-46.72L26.05,-46.13L24.48,-44.92L23.21,-43.13L22.70,-42.00L22.47,-41.38L22.05,-39.98L21.70,-38.38L21.40,-36.59L21.16,-34.61L20.99,-32.42L20.87,-30.04L20.81,-27.46L20.80,-26.10L20.80,-20.90L20.81,-19.51L20.90,-16.91L21.08,-14.54L21.35,-12.40L21.71,-10.49L22.16,-8.80L22.70,-7.34L23.00,-6.70L23.48,-5.88L24.65,-4.51L26.13,-3.48L27.89,-2.79L29.96,-2.44L31.10,-2.40L32.26,-2.44L34.42,-2.76L36.40,-3.40L38.18,-4.36L39.78,-5.64L40.50,-6.40L41.18,-7.21L42.38,-8.90L43.38,-10.68L44.18,-12.54L44.77,-14.49L45.00,-15.50L46.80,-15.30L46.51,-14.10L45.84,-11.83L45.03,-9.77L44.10,-7.90L43.03,-6.23L41.84,-4.75L40.51,-3.47L39.80,-2.90L39.04,-2.36L37.39,-1.41L35.59,-0.61L33.62,0.02L31.50,0.50L29.22,0.82L26.78,0.98L25.50,1.00L24.23,0.98L21.78,0.83L19.47,0.52L17.29,0.05L15.25,-0.56L13.34,-1.33L11.56,-2.26L9.92,-3.34L8.41,-4.57L7.70,-5.25L7.10,-5.89L5.98,-7.26L4.99,-8.74L4.12,-10.34L3.38,-12.05L2.76,-13.88L2.26,-15.83L1.89,-17.89L1.64,-20.07L1.52,-22.36L1.50,-23.55L1.52,-24.74L1.66,-27.04L1.94,-29.23L2.36,-31.31L2.93,-33.27L3.63,-35.13L4.48,-36.87L5.47,-38.50L6.59,-40.03L7.86,-41.44L8.55,-42.10L9.27,-42.73L10.79,-43.90L12.42,-44.94L14.16,-45.85L16.02,-46.63L17.98,-47.28L20.06,-47.80L22.25,-48.19L24.54,-48.45L26.95,-48.58L28.20,-48.60L29.45,-48.58L31.82,-48.44L34.02,-48.16L36.05,-47.74L37.91,-47.17L39.59,-46.47L41.11,-45.63L41.80,-45.15L42.69,-44.44L44.20,-42.92L45.33,-41.26L46.08,-39.46L46.45,-37.52L46.50,-36.50L46.46,-35.24L46.18,-32.99L45.62,-31.09L44.78,-29.54L44.25,-28.90L43.45,-28.17L41.58,-27.10L39.32,-26.57L38.05,-26.50L36.78,-26.56L34.49,-27.02L32.54,-27.96L31.70,-28.60L30.97,-29.36L29.90,-31.20L29.37,-33.49L29.30,-34.80L29.33,-35.70L29.58,-37.50L29.80,-38.40L33.10,-38.40L33.41,-39.38L33.76,-41.17L33.80,-42.00L33.67,-43.47L32.60,-45.60L30.47,-46.67Z   " class=""></path></g><g transform="translate(127.842,0)" fill="#4a682d" stroke="#4a682d" stroke-width="0"><path d="M59.50,-1.80L59.50,0.00L36.70,0.00L35.60,-7.30L35.18,-6.33L34.18,-4.56L32.99,-3.02L31.61,-1.72L30.85,-1.15L30.19,-0.74L28.69,-0.05L26.94,0.46L24.95,0.81L22.71,0.98L21.50,1.00L20.12,0.97L17.56,0.69L15.26,0.14L13.21,-0.69L11.41,-1.79L9.88,-3.17L8.59,-4.83L7.57,-6.76L6.80,-8.97L6.29,-11.46L6.03,-14.22L6.00,-15.70L6.00,-45.80L0.40,-45.80L0.40,-47.60L24.60,-47.60L24.60,-13.30L24.61,-11.86L24.72,-9.38L24.93,-7.40L25.25,-5.94L25.45,-5.40L25.98,-4.57L27.68,-3.62L28.85,-3.50L29.68,-3.59L31.26,-4.28L32.72,-5.65L33.40,-6.60L33.87,-7.41L34.62,-9.26L35.12,-11.41L35.37,-13.86L35.40,-15.20L35.40,-45.80L30.80,-45.80L30.80,-47.60L54.00,-47.60L54.00,-1.80Z   " class=""></path></g><g transform="translate(187.379,0)" fill="#4a682d" stroke="#4a682d" stroke-width="0"><path d="M1.00,-45.80L1.00,-47.60L25.10,-47.60L25.10,-38.40L25.49,-39.50L26.42,-41.52L27.55,-43.28L28.87,-44.79L30.39,-46.05L32.10,-47.06L34.01,-47.81L36.12,-48.32L38.42,-48.57L39.65,-48.60L40.87,-48.57L43.15,-48.30L45.22,-47.77L47.06,-46.97L48.69,-45.90L50.09,-44.57L51.28,-42.97L52.25,-41.10L53.01,-38.97L53.30,-37.80L53.71,-38.97L54.68,-41.10L55.84,-42.97L57.19,-44.57L58.72,-45.90L60.45,-46.97L62.37,-47.77L64.48,-48.30L66.78,-48.57L68.00,-48.60L69.31,-48.57L71.74,-48.29L73.92,-47.74L75.87,-46.91L77.57,-45.81L79.03,-44.43L80.24,-42.77L81.21,-40.84L81.94,-38.63L82.43,-36.14L82.67,-33.38L82.70,-31.90L82.70,-1.80L88.30,-1.80L88.30,0.00L60.60,0.00L60.60,-1.80L64.10,-1.80L64.10,-34.30L64.08,-36.10L63.92,-39.11L63.59,-41.34L63.10,-42.78L62.80,-43.20L62.10,-43.65L61.20,-43.80L60.25,-43.69L58.48,-42.82L56.85,-41.09L56.10,-39.90L55.68,-39.10L54.98,-37.37L54.45,-35.48L54.10,-33.41L53.92,-31.18L53.90,-30.00L53.90,-1.80L57.50,-1.80L57.50,0.00L31.80,0.00L31.80,-1.80L35.30,-1.80L35.30,-34.30L35.28,-36.10L35.12,-39.11L34.79,-41.34L34.30,-42.78L34.00,-43.20L33.30,-43.65L32.40,-43.80L31.48,-43.68L29.74,-42.74L28.12,-40.85L27.35,-39.55L26.92,-38.68L26.20,-36.85L25.66,-34.89L25.30,-32.79L25.12,-30.56L25.10,-29.40L25.10,-1.80L28.70,-1.80L28.70,0.00L1.00,0.00L1.00,-1.80L6.50,-1.80L6.50,-45.80Z   " class=""></path></g><g transform="translate(271.070,0)" fill="#4a682d" stroke="#4a682d" stroke-width="0"><path d="M25.00,-23.50L27.90,-23.50L27.90,-31.20L27.89,-32.74L27.83,-35.56L27.72,-38.03L27.54,-40.16L27.31,-41.93L27.02,-43.36L26.85,-43.95L26.45,-44.94L25.31,-46.39L23.75,-47.11L22.80,-47.20L21.92,-47.14L20.30,-46.67L19.55,-46.25L18.46,-45.13L18.10,-43.65L18.14,-42.82L18.44,-41.15L18.70,-40.30L21.20,-40.30L21.44,-39.58L21.80,-37.99L21.98,-36.21L22.00,-35.25L21.93,-34.29L21.38,-32.50L20.26,-30.89L19.50,-30.15L18.63,-29.49L16.68,-28.54L14.43,-28.06L13.20,-28.00L11.83,-28.06L9.44,-28.52L7.53,-29.44L6.09,-30.82L5.14,-32.67L4.66,-34.97L4.60,-36.30L4.64,-37.30L4.93,-39.18L5.51,-40.89L6.38,-42.43L7.54,-43.80L8.99,-44.99L10.73,-46.02L12.76,-46.87L15.09,-47.55L17.70,-48.07L20.60,-48.41L23.79,-48.58L25.50,-48.60L26.96,-48.58L29.70,-48.46L32.22,-48.20L34.51,-47.82L36.56,-47.32L38.39,-46.69L39.99,-45.93L41.35,-45.04L41.95,-44.55L42.50,-44.02L43.50,-42.79L44.35,-41.36L45.06,-39.71L45.63,-37.86L46.06,-35.79L46.34,-33.51L46.48,-31.02L46.50,-29.70L46.50,-9.40L46.58,-7.81L47.23,-5.50L48.51,-4.34L49.40,-4.20L49.95,-4.27L50.92,-4.84L51.75,-5.99L52.41,-7.70L52.92,-9.99L53.28,-12.85L53.40,-14.50L54.90,-14.40L54.82,-12.97L54.54,-10.34L54.13,-8.02L53.58,-6.00L52.89,-4.29L52.07,-2.89L51.60,-2.30L50.98,-1.67L49.53,-0.62L47.77,0.18L45.73,0.70L43.38,0.97L42.10,1.00L40.64,0.97L37.96,0.74L35.60,0.28L33.55,-0.42L31.83,-1.34L30.42,-2.50L29.33,-3.89L28.56,-5.50L28.30,-6.40L27.83,-5.19L26.67,-3.10L25.23,-1.46L24.40,-0.80L23.71,-0.38L22.11,0.30L20.21,0.75L18.01,0.97L16.80,1.00L15.36,0.97L12.69,0.73L10.33,0.24L8.25,-0.48L6.48,-1.45L5.00,-2.66L3.81,-4.11L2.93,-5.81L2.33,-7.74L2.04,-9.92L2.00,-11.10L2.04,-12.25L2.35,-14.37L2.98,-16.24L3.92,-17.87L5.18,-19.25L6.75,-20.38L7.65,-20.85L8.30,-21.14L9.70,-21.66L11.26,-22.12L12.96,-22.51L14.81,-22.84L16.81,-23.10L18.97,-23.30L21.27,-23.43L23.72,-23.49Z   M21.00,-11.20L21.02,-9.57L21.14,-6.92L21.38,-5.10L21.55,-4.50L22.35,-3.38L23.65,-3.00L24.41,-3.16L25.86,-4.43L26.55,-5.55L26.87,-6.22L27.37,-7.74L27.71,-9.50L27.88,-11.51L27.90,-12.60L27.90,-21.90L27.20,-21.90L26.21,-21.84L24.49,-21.33L23.11,-20.32L22.08,-18.80L21.39,-16.78L21.04,-14.25L21.00,-12.80Z   " class=""></path></g><g transform="translate(322.223,0)" fill="#4a682d" stroke="#4a682d" stroke-width="0"><path d="M1.20,-45.80L1.20,-47.60L25.30,-47.60L25.30,-38.40L25.73,-39.52L26.74,-41.60L27.96,-43.45L29.40,-45.07L30.20,-45.80L30.89,-46.33L32.49,-47.23L34.35,-47.90L36.49,-48.35L38.89,-48.57L40.20,-48.60L41.58,-48.57L44.14,-48.29L46.44,-47.74L48.49,-46.91L50.29,-45.81L51.83,-44.43L53.11,-42.77L54.13,-40.84L54.90,-38.63L55.41,-36.14L55.67,-33.38L55.70,-31.90L55.70,-1.80L61.30,-1.80L61.30,0.00L33.00,0.00L33.00,-1.80L37.10,-1.80L37.10,-34.30L37.09,-35.73L36.99,-38.20L36.79,-40.14L36.49,-41.55L36.30,-42.05L35.82,-42.82L34.37,-43.69L33.40,-43.80L32.61,-43.73L31.11,-43.21L29.69,-42.16L28.37,-40.58L27.75,-39.60L27.28,-38.74L26.50,-36.92L25.91,-34.95L25.52,-32.84L25.32,-30.58L25.30,-29.40L25.30,-1.80L29.60,-1.80L29.60,0.00L1.20,0.00L1.20,-1.80L6.70,-1.80L6.70,-45.80Z   " class=""></path></g></g></g></g></g></svg>