<?xml version="1.0"?><svg xmlns="http://www.w3.org/2000/svg" xmlns:xlink="http://www.w3.org/1999/xlink" style="overflow: visible; width: 100%; height: 100%; position: absolute; left: 0px; top: 0px; transition: all 350ms ease-in-out 0s; backface-visibility: hidden; opacity: 1; transform: rotate3d(1, 1, 0, 0deg);" viewBox="-28.00 -28.00 473.91 139.41" width="798.4031936127744px" height="4000.406608395834px"><g transform="translate(0 0)"><g transform="translate(0 0)"><g transform="translate(0 0)"><g transform="scale(1.1797333333333333 1.1797333333333333) translate(-6 70)"><g transform="translate(0.000,0)" fill="#1fa44e" stroke="#1fa44e" stroke-width="0"><path d="M68.90,-44.70L68.26,-45.29L66.87,-46.39L65.36,-47.39L63.72,-48.28L61.94,-49.07L60.04,-49.75L58.00,-50.32L55.83,-50.78L53.53,-51.13L51.10,-51.37L48.53,-51.49L47.20,-51.50L45.70,-51.49L42.86,-51.38L40.22,-51.18L37.77,-50.88L35.50,-50.48L33.41,-50.00L31.49,-49.44L29.73,-48.79L28.12,-48.07L26.66,-47.28L25.34,-46.42L24.15,-45.50L23.09,-44.51L22.60,-44.00L22.60,-48.30L22.43,-49.37L21.17,-50.63L20.10,-50.80L8.50,-50.80L7.43,-50.63L6.17,-49.37L6.00,-48.30L6.00,-2.50L6.17,-1.43L7.43,-0.17L8.50,0.00L20.10,0.00L21.17,-0.17L22.43,-1.43L22.60,-2.50L22.60,-26.30L22.63,-27.32L22.90,-29.22L23.44,-30.92L24.25,-32.43L25.34,-33.76L26.70,-34.90L28.34,-35.86L30.27,-36.65L32.48,-37.27L34.98,-37.73L37.77,-38.03L40.85,-38.18L42.50,-38.20L43.90,-38.18L46.46,-38.02L48.75,-37.72L50.80,-37.30L52.66,-36.78L54.36,-36.19L55.94,-35.54L56.70,-35.20L57.70,-34.79L59.63,-34.30L61.35,-34.48L62.10,-34.90L67.70,-39.60L68.55,-40.41L69.72,-42.07L69.63,-43.81Z   " class=""></path></g><g transform="translate(66.798,0)" fill="#1fa44e" stroke="#1fa44e" stroke-width="0"><path d="M47.20,-51.50L45.71,-51.49L42.89,-51.37L40.26,-51.16L37.81,-50.84L35.55,-50.42L33.45,-49.91L31.52,-49.31L29.76,-48.63L28.14,-47.87L26.68,-47.04L25.35,-46.13L24.15,-45.16L23.09,-44.14L22.60,-43.60L22.60,-48.30L22.43,-49.37L21.17,-50.63L20.10,-50.80L8.50,-50.80L7.43,-50.63L6.17,-49.37L6.00,-48.30L6.00,-2.50L6.17,-1.43L7.43,-0.17L8.50,0.00L20.10,0.00L21.17,-0.17L22.43,-1.43L22.60,-2.50L22.60,-26.30L22.63,-27.32L22.89,-29.22L23.41,-30.92L24.21,-32.43L25.28,-33.76L26.65,-34.90L28.30,-35.86L30.26,-36.65L32.53,-37.27L35.11,-37.73L38.02,-38.03L41.26,-38.18L43.00,-38.20L44.60,-38.19L47.55,-38.06L50.18,-37.76L52.48,-37.26L54.47,-36.51L56.13,-35.49L57.45,-34.13L58.45,-32.42L59.12,-30.31L59.46,-27.75L59.50,-26.30L59.50,-2.50L59.67,-1.43L60.93,-0.17L62.00,0.00L73.50,0.00L74.57,-0.17L75.83,-1.43L76.00,-2.50L76.00,-26.30L75.99,-27.57L75.87,-30.02L75.62,-32.35L75.25,-34.55L74.73,-36.62L74.07,-38.56L73.25,-40.37L72.28,-42.05L71.13,-43.60L69.81,-45.01L68.31,-46.29L66.62,-47.43L64.73,-48.44L62.64,-49.30L60.34,-50.02L57.83,-50.60L55.08,-51.04L52.11,-51.33L48.90,-51.48Z   " class=""></path></g><g transform="translate(141.763,0)" fill="#1fa44e" stroke="#1fa44e" stroke-width="0"><path d="M50.20,-5.10L48.10,-12.10L47.63,-12.91L45.85,-13.75L44.70,-13.60L43.51,-13.31L40.75,-12.99L38.52,-12.90L38.00,-12.90L36.85,-12.96L34.89,-13.47L33.46,-14.60L32.70,-16.46L32.60,-17.70L32.60,-37.60L46.10,-37.60L47.17,-37.77L48.43,-39.03L48.60,-40.10L48.60,-48.30L48.43,-49.37L47.17,-50.63L46.10,-50.80L32.60,-50.80L32.60,-67.50L32.43,-68.57L31.17,-69.83L30.10,-70.00L18.50,-70.00L17.43,-69.83L16.17,-68.57L16.00,-67.50L16.00,-50.80L4.50,-50.80L3.43,-50.63L2.17,-49.37L2.00,-48.30L2.00,-40.10L2.17,-39.03L3.43,-37.77L4.50,-37.60L16.00,-37.60L16.00,-15.70L16.04,-14.17L16.32,-11.39L16.89,-8.95L17.72,-6.84L18.81,-5.04L20.14,-3.53L21.72,-2.29L23.52,-1.30L25.54,-0.55L27.77,-0.02L30.20,0.32L32.82,0.48L34.20,0.50L34.80,0.49L36.42,0.42L38.49,0.27L40.84,0.01L43.30,-0.36L45.72,-0.86L47.93,-1.51L48.90,-1.90L49.76,-2.46L50.40,-4.09Z   " class=""></path></g><g transform="translate(186.993,0)" fill="#1fa44e" stroke="#1fa44e" stroke-width="0"><path d="M75.00,-70.00L63.40,-70.00L62.33,-69.83L61.07,-68.57L60.90,-67.50L60.90,-48.00L60.28,-48.35L58.95,-49.00L57.49,-49.58L55.87,-50.08L54.11,-50.51L52.18,-50.87L50.08,-51.16L47.81,-51.38L45.35,-51.52L42.70,-51.59L41.30,-51.60L39.50,-51.59L36.05,-51.48L32.80,-51.27L29.75,-50.96L26.88,-50.55L24.21,-50.03L21.71,-49.41L19.40,-48.70L17.26,-47.88L15.30,-46.97L13.50,-45.96L11.86,-44.85L10.39,-43.65L9.07,-42.35L7.90,-40.96L6.87,-39.48L5.99,-37.91L5.25,-36.24L4.65,-34.49L4.18,-32.64L3.83,-30.71L3.61,-28.69L3.51,-26.59L3.50,-25.50L3.52,-24.41L3.64,-22.31L3.88,-20.29L4.24,-18.35L4.73,-16.50L5.34,-14.74L6.08,-13.07L6.96,-11.50L7.98,-10.01L9.15,-8.61L10.47,-7.31L11.94,-6.10L13.57,-4.99L15.36,-3.97L17.32,-3.05L19.44,-2.23L21.75,-1.51L24.23,-0.89L26.90,-0.36L29.76,0.05L32.81,0.37L36.05,0.58L39.50,0.69L41.30,0.70L42.71,0.69L45.39,0.61L47.86,0.46L50.15,0.23L52.25,-0.07L54.18,-0.45L55.94,-0.89L57.54,-1.41L58.99,-1.99L60.30,-2.65L60.90,-3.00L60.90,-2.50L61.07,-1.43L62.33,-0.17L63.40,0.00L75.00,0.00L76.07,-0.17L77.33,-1.43L77.50,-2.50L77.50,-67.50L77.33,-68.57L76.07,-69.83Z   M41.30,-12.90L39.44,-12.91L36.00,-13.00L32.95,-13.20L30.27,-13.54L27.93,-14.04L25.94,-14.73L24.27,-15.63L22.91,-16.77L21.85,-18.17L21.08,-19.86L20.57,-21.86L20.33,-24.20L20.30,-25.50L20.33,-26.80L20.57,-29.14L21.08,-31.14L21.85,-32.83L22.91,-34.23L24.27,-35.37L25.94,-36.27L27.93,-36.96L30.27,-37.46L32.95,-37.80L36.00,-38.00L39.44,-38.09L41.30,-38.10L43.14,-38.09L46.54,-37.98L49.58,-37.75L52.27,-37.37L54.61,-36.83L56.63,-36.10L58.32,-35.17L59.71,-34.01L60.79,-32.61L61.59,-30.95L62.11,-29.00L62.37,-26.75L62.40,-25.50L62.37,-24.25L62.11,-22.00L61.59,-20.05L60.79,-18.39L59.71,-16.99L58.32,-15.83L56.63,-14.90L54.61,-14.17L52.27,-13.63L49.58,-13.25L46.54,-13.02L43.14,-12.91Z   " class=""></path></g><g transform="translate(264.068,0)" fill="#1fa44e" stroke="#1fa44e" stroke-width="0"><path d="M76.50,-25.50L76.48,-26.54L76.35,-28.58L76.09,-30.56L75.70,-32.47L75.16,-34.31L74.49,-36.07L73.67,-37.76L72.70,-39.37L71.59,-40.90L70.32,-42.34L68.90,-43.69L67.31,-44.94L65.57,-46.10L63.66,-47.15L61.59,-48.11L59.34,-48.95L56.93,-49.69L54.33,-50.31L51.56,-50.81L48.60,-51.19L45.46,-51.45L42.14,-51.58L40.40,-51.60L38.69,-51.59L35.40,-51.48L32.30,-51.26L29.37,-50.93L26.61,-50.50L24.03,-49.96L21.62,-49.33L19.37,-48.59L17.28,-47.75L15.36,-46.82L13.59,-45.79L11.98,-44.66L10.51,-43.45L9.19,-42.14L8.02,-40.74L6.99,-39.26L6.10,-37.69L5.35,-36.03L4.73,-34.30L4.24,-32.48L3.87,-30.58L3.63,-28.61L3.51,-26.55L3.50,-25.50L3.52,-24.44L3.64,-22.38L3.89,-20.39L4.27,-18.48L4.77,-16.66L5.41,-14.91L6.19,-13.25L7.10,-11.67L8.15,-10.18L9.34,-8.78L10.68,-7.47L12.16,-6.25L13.79,-5.12L15.57,-4.09L17.50,-3.15L19.59,-2.32L21.84,-1.58L24.24,-0.94L26.80,-0.40L29.53,0.03L32.43,0.36L35.49,0.58L38.72,0.69L40.40,0.70L41.64,0.69L44.09,0.62L46.50,0.47L48.85,0.25L51.14,-0.03L53.36,-0.38L55.51,-0.80L57.57,-1.28L59.55,-1.81L61.44,-2.41L63.22,-3.07L64.89,-3.78L66.45,-4.54L67.89,-5.35L69.19,-6.22L70.37,-7.13L70.90,-7.60L71.53,-8.48L71.17,-10.22L70.50,-11.10L65.30,-15.50L64.41,-16.16L62.66,-16.75L60.95,-16.68L60.10,-16.50L58.89,-16.15L56.63,-15.50L54.56,-14.93L52.64,-14.42L50.81,-13.99L49.03,-13.63L47.25,-13.34L45.43,-13.13L43.53,-12.98L41.49,-12.91L40.40,-12.90L38.72,-12.91L35.60,-13.02L32.81,-13.25L30.34,-13.61L28.16,-14.12L26.28,-14.79L24.68,-15.63L23.34,-16.65L22.26,-17.87L21.43,-19.30L21.10,-20.10L71.30,-20.10L72.64,-20.17L74.66,-20.78L75.88,-22.08L76.44,-24.15Z   M21.00,-30.30L21.30,-31.13L22.09,-32.63L23.15,-33.92L24.47,-35.03L26.08,-35.94L27.97,-36.69L30.17,-37.26L32.69,-37.68L35.52,-37.95L38.69,-38.08L40.40,-38.10L41.97,-38.09L44.90,-37.97L47.54,-37.75L49.91,-37.39L52.01,-36.91L53.86,-36.30L55.47,-35.55L56.83,-34.65L57.98,-33.61L58.90,-32.40L59.62,-31.04L59.90,-30.30Z   " class=""></path></g><g transform="translate(337.643,0)" fill="#1fa44e" stroke="#1fa44e" stroke-width="0"><path d="M20.10,-70.00L8.50,-70.00L7.43,-69.83L6.17,-68.57L6.00,-67.50L6.00,-2.50L6.17,-1.43L7.43,-0.17L8.50,0.00L20.10,0.00L21.17,-0.17L22.43,-1.43L22.60,-2.50L22.60,-67.50L22.43,-68.57L21.17,-69.83Z   " class=""></path></g></g></g></g></g></svg>